<?xml version="1.0"?>
<svg xmlns="http://www.w3.org/2000/svg" xmlns:xlink="http://www.w3.org/1999/xlink" version="1.1" id="Capa_1" x="0px" y="0px" viewBox="0 0 512 512" style="enable-background:new 0 0 512 512;" xml:space="preserve" width="512px" height="512px"><g><g>
	<g>
		<path d="M508.526,100.606c-0.017-0.057-0.036-0.112-0.054-0.167c-2.111-6.638-5.144-12.988-9.069-18.875l-41.017-61.526    C450.021,7.491,436.024,0,420.944,0H91.056c-15.08,0-29.077,7.491-37.442,20.039L12.597,81.563    c-3.925,5.887-6.958,12.238-9.069,18.876c-0.018,0.055-0.036,0.11-0.053,0.165C1.187,107.854,0,115.445,0,123.167V467    c0,24.813,20.187,45,45,45h422c24.813,0,45-20.187,45-45V123.167C512,115.446,510.813,107.854,508.526,100.606z M271,30h149.944    c5.027,0,9.693,2.497,12.482,6.679L468.972,90H271V30z M78.574,36.68C81.363,32.497,86.029,30,91.056,30H241v60H43.028    L78.574,36.68z M482,467c0,8.271-6.729,15-15,15H45c-8.271,0-15-6.729-15-15c0-365.516-0.058-344.56,0.113-347h451.773    C482.057,122.42,482,101.116,482,467z" data-original="#000000" class="active-path" data-old_color="#000000" fill="#5087CF"/>
	</g>
</g><g>
	<g>
		<path d="M317,180H195c-24.813,0-45,20.187-45,45s20.187,45,45,45h122c24.813,0,45-20.187,45-45S341.813,180,317,180z M317,240H195    c-8.271,0-15-6.729-15-15s6.729-15,15-15h122c8.271,0,15,6.729,15,15S325.271,240,317,240z" data-original="#000000" class="active-path" data-old_color="#000000" fill="#5087CF"/>
	</g>
</g></g> </svg>
