<svg xmlns="http://www.w3.org/2000/svg" xmlns:xlink="http://www.w3.org/1999/xlink" width="200" height="63" viewBox="0 0 200 63">
    <defs>
        <path id="a" d="M0 63h199.937V.294H0z"/>
    </defs>
    <g fill="none" fill-rule="evenodd">
        <path fill="#4EC8F4" d="M199.005 38.047h.035V38h-.035zM199.005 24.047h.035V24h-.035zM199.005 62.053h.035V62h-.035z"/>
        <path fill="#81D3F6" d="M173.134 38.047h.034V38h-.034zM173.134 24.047h.034V24h-.034zM188.06 38.047h.034V38h-.034zM188.06 24.047h.034V24h-.034z"/>
        <g>
            <path fill="#000" d="M119.957 25.775c-1.514 0-2.81.539-3.888 1.618-1.078 1.088-1.616 2.44-1.616 3.97 0 1.52.538 2.824 1.616 3.912 1.077 1.089 2.374 1.632 3.888 1.632 1.515 0 2.812-.543 3.89-1.632 1.067-1.078 1.603-2.384 1.603-3.913 0-1.538-.536-2.89-1.603-3.97-1.078-1.078-2.375-1.617-3.89-1.617zm5.493 10.124c-1.54 1.718-3.37 2.575-5.493 2.575-1.952 0-3.62-.692-4.999-2.078-1.381-1.393-2.072-3.071-2.072-5.034 0-1.97.69-3.693 2.072-5.078 1.38-1.393 3.047-2.09 4.999-2.09 1.952 0 3.62.697 5.001 2.09 1.38 1.385 2.07 3.107 2.07 5.078v7.214c0 1.46-.526 2.73-1.578 3.81-1.482 1.495-3.274 2.243-5.378 2.243-2.105 0-3.894-.748-5.367-2.243a7.035 7.035 0 0 1-1.325-1.72.95.95 0 0 1-.14-.472c0-.22.076-.408.228-.56a.751.751 0 0 1 .556-.23c.218 0 .408.081.568.241a.75.75 0 0 1 .176.243c.287.51.637.973 1.048 1.39a5.892 5.892 0 0 0 1.951 1.332 6 6 0 0 0 2.305.438c1.666 0 3.088-.594 4.266-1.783.741-.9 1.112-1.797 1.112-2.689V35.9zM151.69 24.984c0-.22.076-.408.229-.56a.75.75 0 0 1 .554-.23c.22 0 .406.076.562.23.156.152.234.34.234.56v12.694c0 .22-.078.407-.234.56a.771.771 0 0 1-.562.23.749.749 0 0 1-.554-.23.764.764 0 0 1-.228-.56V24.984zM151.69 19.549c0-.22.076-.407.229-.56a.75.75 0 0 1 .554-.23c.22 0 .406.077.562.23.156.153.234.34.234.56v1.874c0 .22-.078.407-.234.56a.771.771 0 0 1-.562.23.748.748 0 0 1-.554-.23.763.763 0 0 1-.228-.56v-1.874zM130.184 24.984a.77.77 0 0 1 .227-.56.754.754 0 0 1 .556-.23c.218 0 .404.076.56.23.156.152.235.34.235.56v12.694a.76.76 0 0 1-.234.56.771.771 0 0 1-.561.23.752.752 0 0 1-.556-.23.77.77 0 0 1-.227-.56V24.984zM130.184 19.549a.77.77 0 0 1 .227-.56.754.754 0 0 1 .556-.23c.218 0 .404.077.56.23a.76.76 0 0 1 .235.56v1.874c0 .22-.079.407-.234.56a.771.771 0 0 1-.561.23.752.752 0 0 1-.556-.23.769.769 0 0 1-.227-.56v-1.874zM73.175 25.775c-1.515 0-2.812.539-3.888 1.618-1.078 1.088-1.617 2.44-1.617 3.97 0 1.52.539 2.824 1.617 3.912 1.076 1.089 2.373 1.632 3.888 1.632 1.515 0 2.812-.543 3.89-1.632 1.067-1.078 1.602-2.384 1.602-3.913 0-1.538-.535-2.89-1.602-3.97-1.078-1.078-2.375-1.617-3.89-1.617zm5.492 10.124c-1.54 1.718-3.37 2.575-5.492 2.575-1.953 0-3.62-.692-5.002-2.078-1.378-1.393-2.068-3.071-2.068-5.034 0-1.97.69-3.693 2.068-5.078 1.382-1.393 3.05-2.09 5.002-2.09s3.619.697 5 2.09c1.38 1.385 2.071 3.107 2.071 5.078v7.214c0 1.46-.527 2.73-1.579 3.81-1.481 1.495-3.275 2.243-5.378 2.243-2.105 0-3.894-.748-5.366-2.243a7.078 7.078 0 0 1-1.326-1.72.947.947 0 0 1-.139-.472.77.77 0 0 1 .228-.56.751.751 0 0 1 .555-.23c.219 0 .409.081.568.241.068.06.127.141.178.243.284.51.634.973 1.047 1.39a5.887 5.887 0 0 0 1.952 1.332 5.99 5.99 0 0 0 2.303.438c1.666 0 3.09-.594 4.268-1.783.74-.9 1.11-1.797 1.11-2.689V35.9zM83.79 24.984c0-.22.076-.408.228-.56a.75.75 0 0 1 .554-.23c.22 0 .407.076.563.23.155.152.233.34.233.56v12.694c0 .22-.078.407-.233.56a.775.775 0 0 1-.563.23.748.748 0 0 1-.554-.23.767.767 0 0 1-.228-.56V24.984zM83.79 19.549c0-.22.076-.407.228-.56a.75.75 0 0 1 .554-.23c.22 0 .407.077.563.23.155.153.233.34.233.56v1.874a.76.76 0 0 1-.233.56.775.775 0 0 1-.563.23.748.748 0 0 1-.554-.23.766.766 0 0 1-.228-.56v-1.874zM108.098 24.984c0-.22.077-.408.229-.56a.75.75 0 0 1 .554-.23c.218 0 .406.076.562.23.156.152.233.34.233.56v12.694c0 .22-.077.407-.233.56a.774.774 0 0 1-.562.23.748.748 0 0 1-.554-.23.766.766 0 0 1-.229-.56V24.984zM108.098 19.549c0-.22.077-.407.229-.56a.75.75 0 0 1 .554-.23c.218 0 .406.077.562.23.156.153.233.34.233.56v1.874c0 .22-.077.407-.233.56a.773.773 0 0 1-.562.23.748.748 0 0 1-.554-.23.765.765 0 0 1-.229-.56v-1.874zM105.38 37.116a.775.775 0 0 0-.562-.229c-2.265 0-3.395-1.147-3.395-3.44v-7.672h2.36a.777.777 0 0 0 .56-.229.758.758 0 0 0 .235-.562.752.752 0 0 0-.235-.56.773.773 0 0 0-.56-.23h-2.36v-4.645a.759.759 0 0 0-.235-.561.776.776 0 0 0-.562-.228.751.751 0 0 0-.555.228.772.772 0 0 0-.229.56v4.646h-8.239v-4.645a.758.758 0 0 0-.234-.561.776.776 0 0 0-.561-.228.749.749 0 0 0-.555.228.768.768 0 0 0-.228.56v4.646h-1.3a.768.768 0 0 0-.561.23.749.749 0 0 0-.235.56c0 .22.077.408.235.562.155.151.34.229.561.229h1.3v7.671c0 3.348 1.658 5.023 4.974 5.023.22 0 .406-.078.563-.23a.76.76 0 0 0 .234-.56.761.761 0 0 0-.234-.563.774.774 0 0 0-.563-.229c-2.264 0-3.395-1.147-3.395-3.44v-7.672h8.238v7.671c0 3.348 1.66 5.023 4.976 5.023.22 0 .407-.078.563-.23a.757.757 0 0 0 .232-.56.757.757 0 0 0-.232-.563M146.868 31.33c0-1.536-.537-2.846-1.605-3.924-1.076-1.088-2.373-1.631-3.888-1.631-1.514 0-2.81.543-3.888 1.63-1.078 1.087-1.618 2.396-1.618 3.925 0 1.53.54 2.837 1.618 3.927 1.078 1.087 2.374 1.63 3.888 1.63 1.515 0 2.812-.543 3.888-1.63 1.068-1.079 1.605-2.389 1.605-3.927zm0-11.769c0-.22.076-.407.234-.56a.772.772 0 0 1 .56-.23c.22 0 .404.078.556.23a.76.76 0 0 1 .228.56V31.33c0 1.973-.69 3.654-2.071 5.048-1.38 1.393-3.047 2.09-5 2.09-1.953 0-3.62-.697-5-2.09-1.38-1.394-2.071-3.075-2.071-5.048 0-1.97.69-3.653 2.072-5.046 1.38-1.393 3.046-2.09 4.999-2.09 1.953 0 3.62.697 5 2.09l.493.496v-7.219zM170.472 24.426a.77.77 0 0 0-.561-.229.752.752 0 0 0-.557.229.765.765 0 0 0-.227.56v6.868c0 1.395-.488 2.58-1.466 3.556-.976.985-2.66 1.48-4.024 1.48-1.348 0-3.04-.495-4.04-1.48-.967-.976-1.453-2.161-1.453-3.556v-6.868a.768.768 0 0 0-.226-.56.748.748 0 0 0-.556-.229.747.747 0 0 0-.556.229.76.76 0 0 0-.227.56v6.868c0 1.836.636 3.4 1.907 4.692 1.297 1.282 3.356 1.923 5.151 1.923 1.766 0 3.942-.756 5.49-2.268v2.202c0 .892-.37 1.788-1.112 2.69-1.179 1.189-2.6 1.783-4.267 1.783a5.987 5.987 0 0 1-2.303-.44 5.913 5.913 0 0 1-1.953-1.331 6.437 6.437 0 0 1-1.046-1.39.807.807 0 0 0-.177-.242.778.778 0 0 0-.57-.241.753.753 0 0 0-.555.229.77.77 0 0 0-.226.56c0 .154.046.31.14.472.335.62.778 1.193 1.323 1.72 1.474 1.497 3.263 2.244 5.367 2.244s3.897-.747 5.38-2.243c1.052-1.08 1.577-2.35 1.577-3.81V24.985a.754.754 0 0 0-.233-.56M180.179 25.775c-1.514 0-2.811.543-3.888 1.63-1.08 1.087-1.617 2.396-1.617 3.925 0 1.53.538 2.837 1.617 3.927 1.077 1.087 2.374 1.63 3.888 1.63 1.516 0 2.812-.543 3.89-1.63 1.067-1.079 1.604-2.388 1.604-3.927 0-1.536-.537-2.846-1.605-3.925-1.077-1.087-2.373-1.63-3.89-1.63m7.07 5.555c0 1.973-.69 3.654-2.07 5.048-1.38 1.393-3.047 2.09-5 2.09-1.952 0-3.62-.697-4.998-2.09-1.382-1.394-2.071-3.075-2.071-5.048 0-1.97.689-3.653 2.07-5.046 1.38-1.393 3.047-2.09 5-2.09 1.952 0 3.618.697 4.999 2.09 1.38 1.393 2.07 3.076 2.07 5.046M189.573 24.984c0-.22.076-.408.228-.56a.752.752 0 0 1 .555-.23c.22 0 .404.076.556.23a.77.77 0 0 1 .227.56v1.797c1.708-1.724 3.544-2.587 5.505-2.587 1.053 0 1.953.165 2.701.497.134.051.257.132.366.242a.756.756 0 0 1 .216.56.77.77 0 0 1-.227.562.753.753 0 0 1-.557.228.767.767 0 0 1-.352-.075c-.59-.289-1.307-.433-2.147-.433-1.515 0-2.813.543-3.89 1.63-1.076 1.08-1.615 2.389-1.615 3.925v6.348a.77.77 0 0 1-.227.56.753.753 0 0 1-.556.23.75.75 0 0 1-.555-.23.77.77 0 0 1-.228-.56V24.984z"/>
            <path fill="#929495" d="M76.7 56.643s.105-1.882 2.21-1.882c2.094 0 2.094 1.882 2.094 1.882H76.7zm2.244-2.864c-3.656 0-3.799 2.872-3.78 3.617 0 0-.179 3.36 3.69 3.36 3.327 0 3.49-2.107 3.49-2.107l-1.53.004s-.299 1.158-1.952 1.128c-2.128-.04-2.209-2.12-2.209-2.12h5.891s.448-3.882-3.6-3.882z"/>
            <path fill="#929495" d="M86.3 59.753c-2.321.03-2.284-2.486-2.284-2.486s-.084-2.42 2.281-2.483c2.366-.062 2.29 2.535 2.29 2.535s.036 2.404-2.287 2.434m.338-5.974c-1.839-.01-2.629 1.098-2.629 1.098v-3.711h-1.476l.027 7.845s-.009.913-.064 1.516h1.43l.06-.88s.67 1.108 2.622 1.108 3.492-1.213 3.533-3.46c.042-2.252-1.664-3.507-3.503-3.516"/>
            <path fill="#929495" d="M93.1 59.807s-1.479.002-1.563-1.189c-.095-1.271 2.272-1.195 2.272-1.195l1.67-.002s.271 2.42-2.379 2.386m3.852-.827c.004-1.015.033-1.922 0-2.562-.038-.74.03-2.528-3.143-2.66 0 0-3.044-.28-3.36 2.006h1.557s.12-1.047 1.7-1.017c1.494.028 1.768.768 1.759 1.678l-1.71.004c-.768.005-3.464.092-3.717 1.749-.3 1.97 1.444 2.586 2.808 2.577 1.362-.006 2.141-.42 2.719-1.158l.061.916 1.357-.006s-.035-.512-.03-1.527"/>
            <path fill="#929495" d="M96.146 54.027h1.71l2.5 5.035 2.509-5.035h1.544L99.885 63H98.23l1.31-2.493zM66.588 55.843c0 .238.04.45.119.635.078.187.183.343.316.469.135.125.295.222.479.29.184.067.382.1.594.1.264 0 .485-.043.669-.132.181-.089.33-.203.446-.342.115-.14.199-.3.25-.478.055-.18.082-.361.082-.542 0-.228-.04-.434-.112-.621a1.315 1.315 0 0 0-.309-.472 1.385 1.385 0 0 0-.459-.297 1.516 1.516 0 0 0-.567-.104c-.262 0-.488.042-.677.13a1.333 1.333 0 0 0-.74.815c-.06.181-.09.363-.09.55zm-.484-3.414h.512v2.325h.014c.06-.117.136-.224.232-.325.095-.1.205-.189.331-.265.128-.076.267-.137.419-.181.152-.046.313-.067.484-.067.338 0 .628.053.872.156a1.712 1.712 0 0 1 .968 1.045c.08.233.118.475.118.726a2.4 2.4 0 0 1-.1.677c-.067.23-.176.435-.328.618a1.743 1.743 0 0 1-.603.455c-.249.118-.557.177-.927.177a1.701 1.701 0 0 1-1.01-.303 1.472 1.472 0 0 1-.294-.273.989.989 0 0 1-.162-.263h-.014v.728h-.512v-5.23z"/>
            <mask id="b" fill="#fff">
                <use xlink:href="#a"/>
            </mask>
            <path fill="#929495" d="M70.705 57.659h.511v-3.632h-.51v3.632zm0-4.041h.511v-.768h-.51v.768zM71.99 54.027h.513v.832h.014c.046-.107.104-.216.172-.328.07-.113.16-.213.268-.304.108-.091.238-.165.39-.223.153-.06.334-.088.546-.088.075 0 .135.002.182.007a.898.898 0 0 1 .123.02v.532a2.795 2.795 0 0 0-.47-.043c-.14 0-.28.024-.425.07a1.054 1.054 0 0 0-.394.23 1.198 1.198 0 0 0-.291.427 1.654 1.654 0 0 0-.115.65v1.85h-.512v-3.632zM107.512 57.769c-.498-.028-.886-.141-1.163-.34-.277-.197-.416-.5-.416-.904h.472c.024.153.063.281.122.384a.686.686 0 0 0 .241.252c.104.064.235.111.398.139.162.028.358.043.589.043.18 0 .342-.011.489-.032.146-.021.27-.057.376-.109a.6.6 0 0 0 .247-.213.635.635 0 0 0 .087-.339.473.473 0 0 0-.06-.234.49.49 0 0 0-.21-.179 1.78 1.78 0 0 0-.42-.13 7.705 7.705 0 0 0-.69-.093 4.793 4.793 0 0 1-.71-.116 1.43 1.43 0 0 1-.466-.195.744.744 0 0 1-.26-.293.994.994 0 0 1-.08-.416c0-.159.032-.303.097-.434a.948.948 0 0 1 .288-.338c.127-.096.288-.172.482-.225.192-.053.422-.08.685-.08.29 0 .541.027.752.077.208.052.383.128.517.23.138.104.24.228.313.374.072.147.114.316.128.508h-.471c-.064-.294-.193-.494-.388-.598-.193-.105-.477-.157-.85-.157-.135 0-.264.009-.389.027-.125.02-.236.05-.333.095a.557.557 0 0 0-.232.189.52.52 0 0 0-.086.31c0 .094.018.172.055.23a.422.422 0 0 0 .205.155c.099.043.235.08.408.112.174.032.396.067.668.105.278.037.515.08.71.125.197.047.357.11.482.19a.76.76 0 0 1 .276.293c.06.117.09.264.09.44 0 .36-.141.64-.422.843-.281.202-.701.306-1.26.31l-.194.273.015.014a.887.887 0 0 1 .275-.035c.177 0 .32.043.43.126.11.084.166.2.166.35 0 .144-.079.268-.239.374-.159.104-.37.157-.632.157a1.88 1.88 0 0 1-.39-.043 2.338 2.338 0 0 1-.297-.076l.084-.245.246.06c.112.025.221.037.328.037.314 0 .471-.087.471-.264 0-.094-.04-.16-.121-.197a.589.589 0 0 0-.24-.056.923.923 0 0 0-.206.022.577.577 0 0 0-.16.056l-.119-.118.312-.441zM110.006 57.663h.513v-3.634h-.513v3.634zm0-4.045h.513v-.768h-.513v.768zM111.295 54.029h.512v.831h.012c.046-.106.106-.216.174-.328a1.311 1.311 0 0 1 .658-.527c.151-.058.335-.088.548-.088.074 0 .134.002.178.007a.826.826 0 0 1 .126.022v.53a2.753 2.753 0 0 0-.47-.041c-.14 0-.281.023-.426.07a1.042 1.042 0 0 0-.396.23 1.223 1.223 0 0 0-.292.426 1.67 1.67 0 0 0-.112.65v1.852h-.512v-3.634zM113.856 52.429h.51v3.369l2.197-1.769h.761l-1.765 1.377 1.898 2.257h-.679l-1.6-1.92-.811.621v1.299h-.511zM120.966 55.58a1.597 1.597 0 0 0-.198-.569 1.295 1.295 0 0 0-.786-.594 1.846 1.846 0 0 0-.5-.066c-.166 0-.33.021-.494.066a1.337 1.337 0 0 0-.8.594 1.414 1.414 0 0 0-.186.57h2.964zm.422.923a1.866 1.866 0 0 1-.223.471c-.096.152-.22.287-.376.406a1.87 1.87 0 0 1-.566.287c-.22.072-.48.109-.774.109-.37 0-.68-.06-.928-.178a1.718 1.718 0 0 1-.602-.455 1.719 1.719 0 0 1-.33-.618c-.067-.23-.1-.455-.1-.679 0-.25.038-.494.117-.726.078-.233.199-.44.36-.619.163-.179.365-.321.61-.426.245-.105.536-.158.873-.158.231 0 .466.03.705.091.241.061.46.169.656.321.196.155.355.364.481.63.124.265.187.602.187 1.013h-3.476c0 .192.031.368.096.535.066.165.16.31.285.433.123.123.275.221.453.295.178.072.381.108.613.108.213 0 .398-.02.557-.053.16-.036.294-.088.41-.158a.95.95 0 0 0 .278-.262c.075-.105.135-.227.18-.367h.514zM122.446 52.85h.513v1.179h1.018v.39h-1.018v2.406c0 .158.034.275.1.35.068.075.206.111.413.111.125 0 .226-.005.308-.013.081-.01.147-.02.197-.029v.434a4.184 4.184 0 0 1-.559.041c-.2 0-.364-.02-.49-.059a.686.686 0 0 1-.297-.17.581.581 0 0 1-.145-.28 1.79 1.79 0 0 1-.04-.391v-2.4h-.78v-.39h.78V52.85zM124.524 57.663h.513v-3.634h-.513v3.634zm0-4.045h.513v-.768h-.513v.768zM129.158 55.846c0-.186-.03-.368-.09-.549a1.428 1.428 0 0 0-.273-.477 1.372 1.372 0 0 0-.468-.34 1.645 1.645 0 0 0-.68-.13c-.204 0-.392.036-.567.106a1.32 1.32 0 0 0-.767.769 1.663 1.663 0 0 0-.113.621c0 .182.026.363.08.542.054.18.138.34.253.478.115.14.265.255.446.343.183.089.406.134.668.134.213 0 .412-.036.596-.102a1.327 1.327 0 0 0 .797-.759c.08-.186.118-.397.118-.636zm-.028 1.09h-.014a1.388 1.388 0 0 1-.458.534 1.693 1.693 0 0 1-1.01.306c-.37 0-.678-.06-.927-.178a1.745 1.745 0 0 1-.604-.455 1.685 1.685 0 0 1-.329-.618 2.41 2.41 0 0 1-.1-.679c0-.251.039-.494.118-.727a1.705 1.705 0 0 1 .97-1.044c.243-.105.535-.157.871-.157a1.724 1.724 0 0 1 1.237.513c.095.1.173.208.232.325h.014v-2.327h.511v5.233h-.51v-.726zM130.418 57.663h.512v-3.634h-.512v3.634zm0-4.045h.512v-.768h-.512v.768zM131.707 54.029h.511v.831h.014c.046-.106.102-.216.173-.328.07-.112.158-.213.267-.304a1.34 1.34 0 0 1 .39-.223 1.53 1.53 0 0 1 .549-.088c.073 0 .133.002.18.007a.805.805 0 0 1 .124.022v.53a2.759 2.759 0 0 0-.472-.041c-.139 0-.28.023-.424.07a1.056 1.056 0 0 0-.397.23 1.26 1.26 0 0 0-.29.426 1.67 1.67 0 0 0-.114.65v1.852h-.511v-3.634z" mask="url(#b)"/>
            <path fill="#7FBB42" d="M23.683.294v23.899h9.522l-2.973 4.458 7.595 5.16V9.904z" mask="url(#b)"/>
            <path fill="#F4AD26" d="M37.828 24.193v9.618l-4.414-3-5.11 7.658h23.683l9.665-14.276z" mask="url(#b)"/>
            <path fill="#EC3F44" d="M28.303 38.47l2.973-4.454-7.593-5.158v23.905l14.143 9.61V38.47z" mask="url(#b)"/>
            <path fill="#2669B2" d="M23.683 28.858l4.413 2.996 5.11-7.661H9.52L0 38.469h23.683z" mask="url(#b)"/>
            <path fill="#D09728" d="M37.827 33.81l6.422-9.617h-6.423z" mask="url(#b)"/>
            <path fill="#73A942" d="M33.21 24.192l-9.53-6.484v6.484z" mask="url(#b)"/>
            <path fill="#20548C" d="M23.683 28.855L17.26 38.47h6.424z" mask="url(#b)"/>
            <path fill="#AE3433" d="M28.302 38.47l9.524 6.482V38.47z" mask="url(#b)"/>
        </g>
    </g>
</svg>
